<?xml version="1.0" encoding="iso-8859-1"?>
<!-- Generator: Adobe Illustrator 19.0.0, SVG Export Plug-In . SVG Version: 6.00 Build 0)  -->
<svg xmlns="http://www.w3.org/2000/svg" xmlns:xlink="http://www.w3.org/1999/xlink" version="1.1" id="Capa_1" x="0px" y="0px" viewBox="0 0 512 512" style="enable-background:new 0 0 512 512;" xml:space="preserve" width="512px" height="512px">
<g>
	<g>
		<path d="M437.02,74.98C388.667,26.629,324.38,0,256,0S123.333,26.629,74.98,74.98C26.629,123.333,0,187.62,0,256    s26.629,132.667,74.98,181.02C123.333,485.371,187.62,512,256,512s132.667-26.629,181.02-74.98    C485.371,388.667,512,324.38,512,256S485.371,123.333,437.02,74.98z M256,497C123.112,497,15,388.888,15,256S123.112,15,256,15    s241,108.112,241,241S388.888,497,256,497z" fill="#f1f1f1"/>
	</g>
</g>
<g>
	<g>
		<path d="M256,90c-91.533,0-166,74.467-166,166s74.467,166,166,166s166-74.467,166-166S347.533,90,256,90z M256,407    c-83.262,0-151-67.738-151-151s67.738-151,151-151s151,67.738,151,151S339.262,407,256,407z" fill="#f1f1f1"/>
	</g>
</g>
<g>
	<g>
		<path d="M382.929,251.62c-1.161-2.803-3.895-4.63-6.929-4.63h-22.5v-67c0-4.142-3.358-7.5-7.5-7.5H166c-4.142,0-7.5,3.358-7.5,7.5    v67H136c-3.033,0-5.768,1.827-6.929,4.63c-1.161,2.802-0.519,6.028,1.626,8.173l120,120c1.464,1.465,3.384,2.197,5.303,2.197    s3.838-0.733,5.303-2.197l120-120C383.448,257.648,384.09,254.423,382.929,251.62z M256,363.883L154.106,261.99H166    c4.142,0,7.5-3.358,7.5-7.5v-67h165v67c0,4.142,3.358,7.5,7.5,7.5h11.893L256,363.883z" fill="#f1f1f1"/>
	</g>
</g>
<g>
	<g>
		<circle cx="256" cy="149.99" r="7.5" fill="#f1f1f1"/>
	</g>
</g>
<g>
	<g>
		<circle cx="226" cy="149.99" r="7.5" fill="#f1f1f1"/>
	</g>
</g>
<g>
	<g>
		<circle cx="286" cy="149.99" r="7.5" fill="#f1f1f1"/>
	</g>
</g>
<g>
	<g>
		<path d="M415.806,96.194C373.121,53.508,316.367,30,256,30S138.88,53.509,96.194,96.194C53.508,138.879,30,195.633,30,256    c0,54.612,19.748,107.335,55.605,148.458c2.723,3.123,7.46,3.446,10.582,0.724c3.122-2.722,3.446-7.46,0.724-10.582    C63.436,356.209,45,306.987,45,256c0-116.346,94.654-211,211-211s211,94.654,211,211s-94.654,211-211,211    c-50.986,0-100.209-18.436-138.6-51.911c-3.122-2.721-7.86-2.398-10.582,0.724c-2.722,3.122-2.398,7.86,0.724,10.582    C148.665,462.252,201.389,482,256,482c60.367,0,117.12-23.509,159.806-66.194C458.492,373.121,482,316.367,482,256    S458.491,138.88,415.806,96.194z" fill="#f1f1f1"/>
	</g>
</g>
<g>
</g>
<g>
</g>
<g>
</g>
<g>
</g>
<g>
</g>
<g>
</g>
<g>
</g>
<g>
</g>
<g>
</g>
<g>
</g>
<g>
</g>
<g>
</g>
<g>
</g>
<g>
</g>
<g>
</g>
</svg>
